<mxfile host="app.diagrams.net" agent="Mozilla/5.0 (Windows NT 10.0; Win64; x64) AppleWebKit/537.36 (KHTML, like Gecko) Chrome/131.0.0.0 Safari/537.36" version="26.0.4">
  <diagram name="Page-1" id="yuwX3BlBr9uTxbegYdtH">
    <mxGraphModel dx="2261" dy="1941" grid="1" gridSize="10" guides="1" tooltips="1" connect="1" arrows="1" fold="1" page="1" pageScale="1" pageWidth="827" pageHeight="1169" math="0" shadow="0">
      <root>
        <mxCell id="0" />
        <mxCell id="1" parent="0" />
        <mxCell id="zOw8amXD0q2Xxl5ATmKY-83" value="Database Shape" style="rounded=1;whiteSpace=wrap;html=1;fillColor=#e1d5e7;strokeColor=#9673a6;fontStyle=1" parent="1" vertex="1">
          <mxGeometry x="-90" y="-100" width="166" height="30" as="geometry" />
        </mxCell>
        <mxCell id="zOw8amXD0q2Xxl5ATmKY-234" value="Person" style="shape=table;startSize=30;container=1;collapsible=0;childLayout=tableLayout;strokeColor=#6c8ebf;fontSize=16;fillColor=#dae8fc;" parent="1" vertex="1">
          <mxGeometry x="-800" y="80" width="317" height="670" as="geometry" />
        </mxCell>
        <mxCell id="zOw8amXD0q2Xxl5ATmKY-235" value="" style="shape=tableRow;horizontal=0;startSize=0;swimlaneHead=0;swimlaneBody=0;strokeColor=inherit;top=0;left=0;bottom=0;right=0;collapsible=0;dropTarget=0;fillColor=none;points=[[0,0.5],[1,0.5]];portConstraint=eastwest;fontSize=16;shadow=0;" parent="zOw8amXD0q2Xxl5ATmKY-234" vertex="1">
          <mxGeometry y="30" width="317" height="40" as="geometry" />
        </mxCell>
        <mxCell id="zOw8amXD0q2Xxl5ATmKY-236" value="&lt;span style=&quot;&quot;&gt;&lt;span&gt;ID&lt;/span&gt;&lt;/span&gt;" style="shape=partialRectangle;html=1;connectable=0;strokeColor=inherit;overflow=hidden;fillColor=none;top=0;left=0;bottom=0;right=0;pointerEvents=1;fontSize=16;shadow=0;fontStyle=1;fontColor=light-dark(#000000,#CCCCFF);align=left;verticalAlign=middle;labelBackgroundColor=none;labelBorderColor=none;textShadow=0;whiteSpace=wrap;spacingTop=0;spacing=2;spacingLeft=13;" parent="zOw8amXD0q2Xxl5ATmKY-235" vertex="1">
          <mxGeometry width="159" height="40" as="geometry">
            <mxRectangle width="159" height="40" as="alternateBounds" />
          </mxGeometry>
        </mxCell>
        <mxCell id="zOw8amXD0q2Xxl5ATmKY-237" value="64" style="shape=partialRectangle;html=1;whiteSpace=wrap;connectable=0;strokeColor=inherit;overflow=hidden;fillColor=none;top=0;left=0;bottom=0;right=0;pointerEvents=1;fontSize=16;shadow=0;" parent="zOw8amXD0q2Xxl5ATmKY-235" vertex="1">
          <mxGeometry x="159" width="158" height="40" as="geometry">
            <mxRectangle width="158" height="40" as="alternateBounds" />
          </mxGeometry>
        </mxCell>
        <mxCell id="zOw8amXD0q2Xxl5ATmKY-409" style="shape=tableRow;horizontal=0;startSize=0;swimlaneHead=0;swimlaneBody=0;strokeColor=inherit;top=0;left=0;bottom=0;right=0;collapsible=0;dropTarget=0;fillColor=none;points=[[0,0.5],[1,0.5]];portConstraint=eastwest;fontSize=16;shadow=0;" parent="zOw8amXD0q2Xxl5ATmKY-234" vertex="1">
          <mxGeometry y="70" width="317" height="40" as="geometry" />
        </mxCell>
        <mxCell id="zOw8amXD0q2Xxl5ATmKY-410" value="Number" style="shape=partialRectangle;html=1;connectable=0;strokeColor=inherit;overflow=hidden;fillColor=none;top=0;left=0;bottom=0;right=0;pointerEvents=1;fontSize=16;shadow=0;fontStyle=1;fontColor=light-dark(#000000,#CCCCFF);align=left;verticalAlign=middle;labelBackgroundColor=none;labelBorderColor=none;textShadow=0;whiteSpace=wrap;spacingTop=0;spacing=2;spacingLeft=13;" parent="zOw8amXD0q2Xxl5ATmKY-409" vertex="1">
          <mxGeometry width="159" height="40" as="geometry">
            <mxRectangle width="159" height="40" as="alternateBounds" />
          </mxGeometry>
        </mxCell>
        <mxCell id="zOw8amXD0q2Xxl5ATmKY-411" value="Int" style="shape=partialRectangle;html=1;whiteSpace=wrap;connectable=0;strokeColor=inherit;overflow=hidden;fillColor=none;top=0;left=0;bottom=0;right=0;pointerEvents=1;fontSize=16;shadow=0;" parent="zOw8amXD0q2Xxl5ATmKY-409" vertex="1">
          <mxGeometry x="159" width="158" height="40" as="geometry">
            <mxRectangle width="158" height="40" as="alternateBounds" />
          </mxGeometry>
        </mxCell>
        <mxCell id="zOw8amXD0q2Xxl5ATmKY-239" value="" style="shape=tableRow;horizontal=0;startSize=0;swimlaneHead=0;swimlaneBody=0;strokeColor=inherit;top=0;left=0;bottom=0;right=0;collapsible=0;dropTarget=0;fillColor=none;points=[[0,0.5],[1,0.5]];portConstraint=eastwest;fontSize=16;shadow=0;" parent="zOw8amXD0q2Xxl5ATmKY-234" vertex="1">
          <mxGeometry y="110" width="317" height="40" as="geometry" />
        </mxCell>
        <mxCell id="zOw8amXD0q2Xxl5ATmKY-240" value="Name" style="shape=partialRectangle;html=1;connectable=0;strokeColor=inherit;overflow=hidden;fillColor=none;top=0;left=0;bottom=0;right=0;pointerEvents=1;fontSize=16;shadow=0;fontStyle=1;fontColor=light-dark(#000000,#CCCCFF);align=left;verticalAlign=middle;labelBackgroundColor=none;labelBorderColor=none;textShadow=0;whiteSpace=wrap;spacingTop=0;spacing=2;spacingLeft=13;" parent="zOw8amXD0q2Xxl5ATmKY-239" vertex="1">
          <mxGeometry width="159" height="40" as="geometry">
            <mxRectangle width="159" height="40" as="alternateBounds" />
          </mxGeometry>
        </mxCell>
        <mxCell id="zOw8amXD0q2Xxl5ATmKY-241" value="255" style="shape=partialRectangle;html=1;whiteSpace=wrap;connectable=0;strokeColor=inherit;overflow=hidden;fillColor=none;top=0;left=0;bottom=0;right=0;pointerEvents=1;fontSize=16;shadow=0;" parent="zOw8amXD0q2Xxl5ATmKY-239" vertex="1">
          <mxGeometry x="159" width="158" height="40" as="geometry">
            <mxRectangle width="158" height="40" as="alternateBounds" />
          </mxGeometry>
        </mxCell>
        <mxCell id="zOw8amXD0q2Xxl5ATmKY-243" value="" style="shape=tableRow;horizontal=0;startSize=0;swimlaneHead=0;swimlaneBody=0;strokeColor=inherit;top=0;left=0;bottom=0;right=0;collapsible=0;dropTarget=0;fillColor=none;points=[[0,0.5],[1,0.5]];portConstraint=eastwest;fontSize=16;shadow=0;" parent="zOw8amXD0q2Xxl5ATmKY-234" vertex="1">
          <mxGeometry y="150" width="317" height="40" as="geometry" />
        </mxCell>
        <mxCell id="zOw8amXD0q2Xxl5ATmKY-244" value="&lt;span style=&quot;&quot;&gt;National ID&lt;/span&gt;" style="shape=partialRectangle;html=1;connectable=0;strokeColor=inherit;overflow=hidden;fillColor=none;top=0;left=0;bottom=0;right=0;pointerEvents=1;fontSize=16;shadow=0;fontStyle=1;fontColor=light-dark(#000000,#CCCCFF);align=left;verticalAlign=middle;labelBackgroundColor=none;labelBorderColor=none;textShadow=0;whiteSpace=wrap;spacingTop=0;spacing=2;spacingLeft=13;" parent="zOw8amXD0q2Xxl5ATmKY-243" vertex="1">
          <mxGeometry width="159" height="40" as="geometry">
            <mxRectangle width="159" height="40" as="alternateBounds" />
          </mxGeometry>
        </mxCell>
        <mxCell id="zOw8amXD0q2Xxl5ATmKY-245" value="20" style="shape=partialRectangle;html=1;whiteSpace=wrap;connectable=0;strokeColor=inherit;overflow=hidden;fillColor=none;top=0;left=0;bottom=0;right=0;pointerEvents=1;fontSize=16;shadow=0;" parent="zOw8amXD0q2Xxl5ATmKY-243" vertex="1">
          <mxGeometry x="159" width="158" height="40" as="geometry">
            <mxRectangle width="158" height="40" as="alternateBounds" />
          </mxGeometry>
        </mxCell>
        <mxCell id="zOw8amXD0q2Xxl5ATmKY-254" style="shape=tableRow;horizontal=0;startSize=0;swimlaneHead=0;swimlaneBody=0;strokeColor=inherit;top=0;left=0;bottom=0;right=0;collapsible=0;dropTarget=0;fillColor=none;points=[[0,0.5],[1,0.5]];portConstraint=eastwest;fontSize=16;shadow=0;" parent="zOw8amXD0q2Xxl5ATmKY-234" vertex="1">
          <mxGeometry y="190" width="317" height="40" as="geometry" />
        </mxCell>
        <mxCell id="zOw8amXD0q2Xxl5ATmKY-255" value="&lt;span style=&quot;&quot;&gt;Gender&lt;/span&gt;" style="shape=partialRectangle;html=1;connectable=0;strokeColor=inherit;overflow=hidden;fillColor=none;top=0;left=0;bottom=0;right=0;pointerEvents=1;fontSize=16;shadow=0;fontStyle=1;fontColor=light-dark(#000000,#CCCCFF);align=left;verticalAlign=middle;labelBackgroundColor=none;labelBorderColor=none;textShadow=0;whiteSpace=wrap;spacingTop=0;spacing=2;spacingLeft=13;" parent="zOw8amXD0q2Xxl5ATmKY-254" vertex="1">
          <mxGeometry width="159" height="40" as="geometry">
            <mxRectangle width="159" height="40" as="alternateBounds" />
          </mxGeometry>
        </mxCell>
        <mxCell id="zOw8amXD0q2Xxl5ATmKY-256" value="Enum" style="shape=partialRectangle;html=1;whiteSpace=wrap;connectable=0;strokeColor=inherit;overflow=hidden;fillColor=none;top=0;left=0;bottom=0;right=0;pointerEvents=1;fontSize=16;shadow=0;" parent="zOw8amXD0q2Xxl5ATmKY-254" vertex="1">
          <mxGeometry x="159" width="158" height="40" as="geometry">
            <mxRectangle width="158" height="40" as="alternateBounds" />
          </mxGeometry>
        </mxCell>
        <mxCell id="zOw8amXD0q2Xxl5ATmKY-257" style="shape=tableRow;horizontal=0;startSize=0;swimlaneHead=0;swimlaneBody=0;strokeColor=inherit;top=0;left=0;bottom=0;right=0;collapsible=0;dropTarget=0;fillColor=none;points=[[0,0.5],[1,0.5]];portConstraint=eastwest;fontSize=16;shadow=0;" parent="zOw8amXD0q2Xxl5ATmKY-234" vertex="1">
          <mxGeometry y="230" width="317" height="40" as="geometry" />
        </mxCell>
        <mxCell id="zOw8amXD0q2Xxl5ATmKY-258" value="Date" style="shape=partialRectangle;html=1;connectable=0;strokeColor=inherit;overflow=hidden;fillColor=none;top=0;left=0;bottom=0;right=0;pointerEvents=1;fontSize=16;shadow=0;fontStyle=1;fontColor=light-dark(#000000,#CCCCFF);align=left;verticalAlign=middle;labelBackgroundColor=none;labelBorderColor=none;textShadow=0;whiteSpace=wrap;spacingTop=0;spacing=2;spacingLeft=13;" parent="zOw8amXD0q2Xxl5ATmKY-257" vertex="1">
          <mxGeometry width="159" height="40" as="geometry">
            <mxRectangle width="159" height="40" as="alternateBounds" />
          </mxGeometry>
        </mxCell>
        <mxCell id="zOw8amXD0q2Xxl5ATmKY-259" value="Date" style="shape=partialRectangle;html=1;whiteSpace=wrap;connectable=0;strokeColor=inherit;overflow=hidden;fillColor=none;top=0;left=0;bottom=0;right=0;pointerEvents=1;fontSize=16;shadow=0;" parent="zOw8amXD0q2Xxl5ATmKY-257" vertex="1">
          <mxGeometry x="159" width="158" height="40" as="geometry">
            <mxRectangle width="158" height="40" as="alternateBounds" />
          </mxGeometry>
        </mxCell>
        <mxCell id="zOw8amXD0q2Xxl5ATmKY-263" style="shape=tableRow;horizontal=0;startSize=0;swimlaneHead=0;swimlaneBody=0;strokeColor=inherit;top=0;left=0;bottom=0;right=0;collapsible=0;dropTarget=0;fillColor=none;points=[[0,0.5],[1,0.5]];portConstraint=eastwest;fontSize=16;shadow=0;" parent="zOw8amXD0q2Xxl5ATmKY-234" vertex="1">
          <mxGeometry y="270" width="317" height="40" as="geometry" />
        </mxCell>
        <mxCell id="zOw8amXD0q2Xxl5ATmKY-264" value="Religion" style="shape=partialRectangle;html=1;connectable=0;strokeColor=inherit;overflow=hidden;fillColor=none;top=0;left=0;bottom=0;right=0;pointerEvents=1;fontSize=16;shadow=0;fontStyle=1;fontColor=light-dark(#000000,#CCCCFF);align=left;verticalAlign=middle;labelBackgroundColor=none;labelBorderColor=none;textShadow=0;whiteSpace=wrap;spacingTop=0;spacing=2;spacingLeft=13;" parent="zOw8amXD0q2Xxl5ATmKY-263" vertex="1">
          <mxGeometry width="159" height="40" as="geometry">
            <mxRectangle width="159" height="40" as="alternateBounds" />
          </mxGeometry>
        </mxCell>
        <mxCell id="zOw8amXD0q2Xxl5ATmKY-265" value="Enum" style="shape=partialRectangle;html=1;whiteSpace=wrap;connectable=0;strokeColor=inherit;overflow=hidden;fillColor=none;top=0;left=0;bottom=0;right=0;pointerEvents=1;fontSize=16;shadow=0;" parent="zOw8amXD0q2Xxl5ATmKY-263" vertex="1">
          <mxGeometry x="159" width="158" height="40" as="geometry">
            <mxRectangle width="158" height="40" as="alternateBounds" />
          </mxGeometry>
        </mxCell>
        <mxCell id="zOw8amXD0q2Xxl5ATmKY-272" style="shape=tableRow;horizontal=0;startSize=0;swimlaneHead=0;swimlaneBody=0;strokeColor=inherit;top=0;left=0;bottom=0;right=0;collapsible=0;dropTarget=0;fillColor=none;points=[[0,0.5],[1,0.5]];portConstraint=eastwest;fontSize=16;shadow=0;" parent="zOw8amXD0q2Xxl5ATmKY-234" vertex="1">
          <mxGeometry y="310" width="317" height="40" as="geometry" />
        </mxCell>
        <mxCell id="zOw8amXD0q2Xxl5ATmKY-273" value="Work" style="shape=partialRectangle;html=1;connectable=0;strokeColor=inherit;overflow=hidden;fillColor=none;top=0;left=0;bottom=0;right=0;pointerEvents=1;fontSize=16;shadow=0;fontStyle=1;fontColor=light-dark(#000000,#CCCCFF);align=left;verticalAlign=middle;labelBackgroundColor=none;labelBorderColor=none;textShadow=0;whiteSpace=wrap;spacingTop=0;spacing=2;spacingLeft=13;" parent="zOw8amXD0q2Xxl5ATmKY-272" vertex="1">
          <mxGeometry width="159" height="40" as="geometry">
            <mxRectangle width="159" height="40" as="alternateBounds" />
          </mxGeometry>
        </mxCell>
        <mxCell id="zOw8amXD0q2Xxl5ATmKY-274" value="100" style="shape=partialRectangle;html=1;whiteSpace=wrap;connectable=0;strokeColor=inherit;overflow=hidden;fillColor=none;top=0;left=0;bottom=0;right=0;pointerEvents=1;fontSize=16;shadow=0;" parent="zOw8amXD0q2Xxl5ATmKY-272" vertex="1">
          <mxGeometry x="159" width="158" height="40" as="geometry">
            <mxRectangle width="158" height="40" as="alternateBounds" />
          </mxGeometry>
        </mxCell>
        <mxCell id="zOw8amXD0q2Xxl5ATmKY-275" style="shape=tableRow;horizontal=0;startSize=0;swimlaneHead=0;swimlaneBody=0;strokeColor=inherit;top=0;left=0;bottom=0;right=0;collapsible=0;dropTarget=0;fillColor=none;points=[[0,0.5],[1,0.5]];portConstraint=eastwest;fontSize=16;shadow=0;" parent="zOw8amXD0q2Xxl5ATmKY-234" vertex="1">
          <mxGeometry y="350" width="317" height="40" as="geometry" />
        </mxCell>
        <mxCell id="zOw8amXD0q2Xxl5ATmKY-276" value="Work Address" style="shape=partialRectangle;html=1;connectable=0;strokeColor=inherit;overflow=hidden;fillColor=none;top=0;left=0;bottom=0;right=0;pointerEvents=1;fontSize=16;shadow=0;fontStyle=1;fontColor=light-dark(#000000,#CCCCFF);align=left;verticalAlign=middle;labelBackgroundColor=none;labelBorderColor=none;textShadow=0;whiteSpace=wrap;spacingTop=0;spacing=2;spacingLeft=13;" parent="zOw8amXD0q2Xxl5ATmKY-275" vertex="1">
          <mxGeometry width="159" height="40" as="geometry">
            <mxRectangle width="159" height="40" as="alternateBounds" />
          </mxGeometry>
        </mxCell>
        <mxCell id="zOw8amXD0q2Xxl5ATmKY-277" value="255" style="shape=partialRectangle;html=1;whiteSpace=wrap;connectable=0;strokeColor=inherit;overflow=hidden;fillColor=none;top=0;left=0;bottom=0;right=0;pointerEvents=1;fontSize=16;shadow=0;" parent="zOw8amXD0q2Xxl5ATmKY-275" vertex="1">
          <mxGeometry x="159" width="158" height="40" as="geometry">
            <mxRectangle width="158" height="40" as="alternateBounds" />
          </mxGeometry>
        </mxCell>
        <mxCell id="zOw8amXD0q2Xxl5ATmKY-278" style="shape=tableRow;horizontal=0;startSize=0;swimlaneHead=0;swimlaneBody=0;strokeColor=inherit;top=0;left=0;bottom=0;right=0;collapsible=0;dropTarget=0;fillColor=none;points=[[0,0.5],[1,0.5]];portConstraint=eastwest;fontSize=16;shadow=0;" parent="zOw8amXD0q2Xxl5ATmKY-234" vertex="1">
          <mxGeometry y="390" width="317" height="40" as="geometry" />
        </mxCell>
        <mxCell id="zOw8amXD0q2Xxl5ATmKY-279" value="Phone" style="shape=partialRectangle;html=1;connectable=0;strokeColor=inherit;overflow=hidden;fillColor=none;top=0;left=0;bottom=0;right=0;pointerEvents=1;fontSize=16;shadow=0;fontStyle=1;fontColor=light-dark(#000000,#CCCCFF);align=left;verticalAlign=middle;labelBackgroundColor=none;labelBorderColor=none;textShadow=0;whiteSpace=wrap;spacingTop=0;spacing=2;spacingLeft=13;" parent="zOw8amXD0q2Xxl5ATmKY-278" vertex="1">
          <mxGeometry width="159" height="40" as="geometry">
            <mxRectangle width="159" height="40" as="alternateBounds" />
          </mxGeometry>
        </mxCell>
        <mxCell id="zOw8amXD0q2Xxl5ATmKY-280" value="50 []" style="shape=partialRectangle;html=1;whiteSpace=wrap;connectable=0;strokeColor=inherit;overflow=hidden;fillColor=none;top=0;left=0;bottom=0;right=0;pointerEvents=1;fontSize=16;shadow=0;" parent="zOw8amXD0q2Xxl5ATmKY-278" vertex="1">
          <mxGeometry x="159" width="158" height="40" as="geometry">
            <mxRectangle width="158" height="40" as="alternateBounds" />
          </mxGeometry>
        </mxCell>
        <mxCell id="zOw8amXD0q2Xxl5ATmKY-281" style="shape=tableRow;horizontal=0;startSize=0;swimlaneHead=0;swimlaneBody=0;strokeColor=inherit;top=0;left=0;bottom=0;right=0;collapsible=0;dropTarget=0;fillColor=none;points=[[0,0.5],[1,0.5]];portConstraint=eastwest;fontSize=16;shadow=0;" parent="zOw8amXD0q2Xxl5ATmKY-234" vertex="1">
          <mxGeometry y="430" width="317" height="40" as="geometry" />
        </mxCell>
        <mxCell id="zOw8amXD0q2Xxl5ATmKY-282" value="Nickname" style="shape=partialRectangle;html=1;connectable=0;strokeColor=inherit;overflow=hidden;fillColor=none;top=0;left=0;bottom=0;right=0;pointerEvents=1;fontSize=16;shadow=0;fontStyle=1;fontColor=light-dark(#000000,#CCCCFF);align=left;verticalAlign=middle;labelBackgroundColor=none;labelBorderColor=none;textShadow=0;whiteSpace=wrap;spacingTop=0;spacing=2;spacingLeft=13;" parent="zOw8amXD0q2Xxl5ATmKY-281" vertex="1">
          <mxGeometry width="159" height="40" as="geometry">
            <mxRectangle width="159" height="40" as="alternateBounds" />
          </mxGeometry>
        </mxCell>
        <mxCell id="zOw8amXD0q2Xxl5ATmKY-283" value="100" style="shape=partialRectangle;html=1;whiteSpace=wrap;connectable=0;strokeColor=inherit;overflow=hidden;fillColor=none;top=0;left=0;bottom=0;right=0;pointerEvents=1;fontSize=16;shadow=0;" parent="zOw8amXD0q2Xxl5ATmKY-281" vertex="1">
          <mxGeometry x="159" width="158" height="40" as="geometry">
            <mxRectangle width="158" height="40" as="alternateBounds" />
          </mxGeometry>
        </mxCell>
        <mxCell id="zOw8amXD0q2Xxl5ATmKY-284" style="shape=tableRow;horizontal=0;startSize=0;swimlaneHead=0;swimlaneBody=0;strokeColor=inherit;top=0;left=0;bottom=0;right=0;collapsible=0;dropTarget=0;fillColor=none;points=[[0,0.5],[1,0.5]];portConstraint=eastwest;fontSize=16;shadow=0;" parent="zOw8amXD0q2Xxl5ATmKY-234" vertex="1">
          <mxGeometry y="470" width="317" height="40" as="geometry" />
        </mxCell>
        <mxCell id="zOw8amXD0q2Xxl5ATmKY-285" value="Nationality" style="shape=partialRectangle;html=1;connectable=0;strokeColor=inherit;overflow=hidden;fillColor=none;top=0;left=0;bottom=0;right=0;pointerEvents=1;fontSize=16;shadow=0;fontStyle=1;fontColor=light-dark(#000000,#CCCCFF);align=left;verticalAlign=middle;labelBackgroundColor=none;labelBorderColor=none;textShadow=0;whiteSpace=wrap;spacingTop=0;spacing=2;spacingLeft=13;" parent="zOw8amXD0q2Xxl5ATmKY-284" vertex="1">
          <mxGeometry width="159" height="40" as="geometry">
            <mxRectangle width="159" height="40" as="alternateBounds" />
          </mxGeometry>
        </mxCell>
        <mxCell id="zOw8amXD0q2Xxl5ATmKY-286" value="100" style="shape=partialRectangle;html=1;whiteSpace=wrap;connectable=0;strokeColor=inherit;overflow=hidden;fillColor=none;top=0;left=0;bottom=0;right=0;pointerEvents=1;fontSize=16;shadow=0;" parent="zOw8amXD0q2Xxl5ATmKY-284" vertex="1">
          <mxGeometry x="159" width="158" height="40" as="geometry">
            <mxRectangle width="158" height="40" as="alternateBounds" />
          </mxGeometry>
        </mxCell>
        <mxCell id="zOw8amXD0q2Xxl5ATmKY-287" style="shape=tableRow;horizontal=0;startSize=0;swimlaneHead=0;swimlaneBody=0;strokeColor=inherit;top=0;left=0;bottom=0;right=0;collapsible=0;dropTarget=0;fillColor=none;points=[[0,0.5],[1,0.5]];portConstraint=eastwest;fontSize=16;shadow=0;" parent="zOw8amXD0q2Xxl5ATmKY-234" vertex="1">
          <mxGeometry y="510" width="317" height="40" as="geometry" />
        </mxCell>
        <mxCell id="zOw8amXD0q2Xxl5ATmKY-288" value="Front Card" style="shape=partialRectangle;html=1;connectable=0;strokeColor=inherit;overflow=hidden;fillColor=none;top=0;left=0;bottom=0;right=0;pointerEvents=1;fontSize=16;shadow=0;fontStyle=1;fontColor=light-dark(#000000,#CCCCFF);align=left;verticalAlign=middle;labelBackgroundColor=none;labelBorderColor=none;textShadow=0;whiteSpace=wrap;spacingTop=0;spacing=2;spacingLeft=13;" parent="zOw8amXD0q2Xxl5ATmKY-287" vertex="1">
          <mxGeometry width="159" height="40" as="geometry">
            <mxRectangle width="159" height="40" as="alternateBounds" />
          </mxGeometry>
        </mxCell>
        <mxCell id="zOw8amXD0q2Xxl5ATmKY-289" value="ID" style="shape=partialRectangle;html=1;whiteSpace=wrap;connectable=0;strokeColor=inherit;overflow=hidden;fillColor=none;top=0;left=0;bottom=0;right=0;pointerEvents=1;fontSize=16;shadow=0;" parent="zOw8amXD0q2Xxl5ATmKY-287" vertex="1">
          <mxGeometry x="159" width="158" height="40" as="geometry">
            <mxRectangle width="158" height="40" as="alternateBounds" />
          </mxGeometry>
        </mxCell>
        <mxCell id="zOw8amXD0q2Xxl5ATmKY-290" style="shape=tableRow;horizontal=0;startSize=0;swimlaneHead=0;swimlaneBody=0;strokeColor=inherit;top=0;left=0;bottom=0;right=0;collapsible=0;dropTarget=0;fillColor=none;points=[[0,0.5],[1,0.5]];portConstraint=eastwest;fontSize=16;shadow=0;" parent="zOw8amXD0q2Xxl5ATmKY-234" vertex="1">
          <mxGeometry y="550" width="317" height="40" as="geometry" />
        </mxCell>
        <mxCell id="zOw8amXD0q2Xxl5ATmKY-291" value="Back Card" style="shape=partialRectangle;html=1;connectable=0;strokeColor=inherit;overflow=hidden;fillColor=none;top=0;left=0;bottom=0;right=0;pointerEvents=1;fontSize=16;shadow=0;fontStyle=1;fontColor=light-dark(#000000,#CCCCFF);align=left;verticalAlign=middle;labelBackgroundColor=none;labelBorderColor=none;textShadow=0;whiteSpace=wrap;spacingTop=0;spacing=2;spacingLeft=13;" parent="zOw8amXD0q2Xxl5ATmKY-290" vertex="1">
          <mxGeometry width="159" height="40" as="geometry">
            <mxRectangle width="159" height="40" as="alternateBounds" />
          </mxGeometry>
        </mxCell>
        <mxCell id="zOw8amXD0q2Xxl5ATmKY-292" value="ID" style="shape=partialRectangle;html=1;whiteSpace=wrap;connectable=0;strokeColor=inherit;overflow=hidden;fillColor=none;top=0;left=0;bottom=0;right=0;pointerEvents=1;fontSize=16;shadow=0;" parent="zOw8amXD0q2Xxl5ATmKY-290" vertex="1">
          <mxGeometry x="159" width="158" height="40" as="geometry">
            <mxRectangle width="158" height="40" as="alternateBounds" />
          </mxGeometry>
        </mxCell>
        <mxCell id="zOw8amXD0q2Xxl5ATmKY-293" style="shape=tableRow;horizontal=0;startSize=0;swimlaneHead=0;swimlaneBody=0;strokeColor=inherit;top=0;left=0;bottom=0;right=0;collapsible=0;dropTarget=0;fillColor=none;points=[[0,0.5],[1,0.5]];portConstraint=eastwest;fontSize=16;shadow=0;" parent="zOw8amXD0q2Xxl5ATmKY-234" vertex="1">
          <mxGeometry y="590" width="317" height="40" as="geometry" />
        </mxCell>
        <mxCell id="zOw8amXD0q2Xxl5ATmKY-294" value="Photo" style="shape=partialRectangle;html=1;connectable=0;strokeColor=inherit;overflow=hidden;fillColor=none;top=0;left=0;bottom=0;right=0;pointerEvents=1;fontSize=16;shadow=0;fontStyle=1;fontColor=light-dark(#000000,#CCCCFF);align=left;verticalAlign=middle;labelBackgroundColor=none;labelBorderColor=none;textShadow=0;whiteSpace=wrap;spacingTop=0;spacing=2;spacingLeft=13;" parent="zOw8amXD0q2Xxl5ATmKY-293" vertex="1">
          <mxGeometry width="159" height="40" as="geometry">
            <mxRectangle width="159" height="40" as="alternateBounds" />
          </mxGeometry>
        </mxCell>
        <mxCell id="zOw8amXD0q2Xxl5ATmKY-295" value="ID" style="shape=partialRectangle;html=1;whiteSpace=wrap;connectable=0;strokeColor=inherit;overflow=hidden;fillColor=none;top=0;left=0;bottom=0;right=0;pointerEvents=1;fontSize=16;shadow=0;" parent="zOw8amXD0q2Xxl5ATmKY-293" vertex="1">
          <mxGeometry x="159" width="158" height="40" as="geometry">
            <mxRectangle width="158" height="40" as="alternateBounds" />
          </mxGeometry>
        </mxCell>
        <mxCell id="zOw8amXD0q2Xxl5ATmKY-296" style="shape=tableRow;horizontal=0;startSize=0;swimlaneHead=0;swimlaneBody=0;strokeColor=inherit;top=0;left=0;bottom=0;right=0;collapsible=0;dropTarget=0;fillColor=none;points=[[0,0.5],[1,0.5]];portConstraint=eastwest;fontSize=16;shadow=0;" parent="zOw8amXD0q2Xxl5ATmKY-234" vertex="1">
          <mxGeometry y="630" width="317" height="40" as="geometry" />
        </mxCell>
        <mxCell id="zOw8amXD0q2Xxl5ATmKY-297" value="Created At" style="shape=partialRectangle;html=1;connectable=0;strokeColor=inherit;overflow=hidden;fillColor=none;top=0;left=0;bottom=0;right=0;pointerEvents=1;fontSize=16;shadow=0;fontStyle=1;fontColor=light-dark(#000000,#CCCCFF);align=left;verticalAlign=middle;labelBackgroundColor=none;labelBorderColor=none;textShadow=0;whiteSpace=wrap;spacingTop=0;spacing=2;spacingLeft=13;" parent="zOw8amXD0q2Xxl5ATmKY-296" vertex="1">
          <mxGeometry width="159" height="40" as="geometry">
            <mxRectangle width="159" height="40" as="alternateBounds" />
          </mxGeometry>
        </mxCell>
        <mxCell id="zOw8amXD0q2Xxl5ATmKY-298" value="Date Time" style="shape=partialRectangle;html=1;whiteSpace=wrap;connectable=0;strokeColor=inherit;overflow=hidden;fillColor=none;top=0;left=0;bottom=0;right=0;pointerEvents=1;fontSize=16;shadow=0;" parent="zOw8amXD0q2Xxl5ATmKY-296" vertex="1">
          <mxGeometry x="159" width="158" height="40" as="geometry">
            <mxRectangle width="158" height="40" as="alternateBounds" />
          </mxGeometry>
        </mxCell>
        <mxCell id="zOw8amXD0q2Xxl5ATmKY-299" value="Registered" style="shape=table;startSize=30;container=1;collapsible=0;childLayout=tableLayout;strokeColor=#6c8ebf;fontSize=16;fillColor=#dae8fc;" parent="1" vertex="1">
          <mxGeometry x="-150" y="74" width="317" height="510" as="geometry" />
        </mxCell>
        <mxCell id="zOw8amXD0q2Xxl5ATmKY-300" value="" style="shape=tableRow;horizontal=0;startSize=0;swimlaneHead=0;swimlaneBody=0;strokeColor=inherit;top=0;left=0;bottom=0;right=0;collapsible=0;dropTarget=0;fillColor=none;points=[[0,0.5],[1,0.5]];portConstraint=eastwest;fontSize=16;shadow=0;" parent="zOw8amXD0q2Xxl5ATmKY-299" vertex="1">
          <mxGeometry y="30" width="317" height="40" as="geometry" />
        </mxCell>
        <mxCell id="zOw8amXD0q2Xxl5ATmKY-301" value="&lt;span style=&quot;&quot;&gt;&lt;span&gt;ID&lt;/span&gt;&lt;/span&gt;" style="shape=partialRectangle;html=1;connectable=0;strokeColor=inherit;overflow=hidden;fillColor=none;top=0;left=0;bottom=0;right=0;pointerEvents=1;fontSize=16;shadow=0;fontStyle=1;fontColor=light-dark(#000000,#CCCCFF);align=left;verticalAlign=middle;labelBackgroundColor=none;labelBorderColor=none;textShadow=0;whiteSpace=wrap;spacingTop=0;spacing=2;spacingLeft=13;" parent="zOw8amXD0q2Xxl5ATmKY-300" vertex="1">
          <mxGeometry width="159" height="40" as="geometry">
            <mxRectangle width="159" height="40" as="alternateBounds" />
          </mxGeometry>
        </mxCell>
        <mxCell id="zOw8amXD0q2Xxl5ATmKY-302" value="64" style="shape=partialRectangle;html=1;whiteSpace=wrap;connectable=0;strokeColor=inherit;overflow=hidden;fillColor=none;top=0;left=0;bottom=0;right=0;pointerEvents=1;fontSize=16;shadow=0;" parent="zOw8amXD0q2Xxl5ATmKY-300" vertex="1">
          <mxGeometry x="159" width="158" height="40" as="geometry">
            <mxRectangle width="158" height="40" as="alternateBounds" />
          </mxGeometry>
        </mxCell>
        <mxCell id="zOw8amXD0q2Xxl5ATmKY-303" value="" style="shape=tableRow;horizontal=0;startSize=0;swimlaneHead=0;swimlaneBody=0;strokeColor=inherit;top=0;left=0;bottom=0;right=0;collapsible=0;dropTarget=0;fillColor=none;points=[[0,0.5],[1,0.5]];portConstraint=eastwest;fontSize=16;shadow=0;" parent="zOw8amXD0q2Xxl5ATmKY-299" vertex="1">
          <mxGeometry y="70" width="317" height="40" as="geometry" />
        </mxCell>
        <mxCell id="zOw8amXD0q2Xxl5ATmKY-304" value="Person ID" style="shape=partialRectangle;html=1;connectable=0;strokeColor=inherit;overflow=hidden;fillColor=none;top=0;left=0;bottom=0;right=0;pointerEvents=1;fontSize=16;shadow=0;fontStyle=1;fontColor=light-dark(#000000,#CCCCFF);align=left;verticalAlign=middle;labelBackgroundColor=none;labelBorderColor=none;textShadow=0;whiteSpace=wrap;spacingTop=0;spacing=2;spacingLeft=13;" parent="zOw8amXD0q2Xxl5ATmKY-303" vertex="1">
          <mxGeometry width="159" height="40" as="geometry">
            <mxRectangle width="159" height="40" as="alternateBounds" />
          </mxGeometry>
        </mxCell>
        <mxCell id="zOw8amXD0q2Xxl5ATmKY-305" value="64" style="shape=partialRectangle;html=1;whiteSpace=wrap;connectable=0;strokeColor=inherit;overflow=hidden;fillColor=none;top=0;left=0;bottom=0;right=0;pointerEvents=1;fontSize=16;shadow=0;" parent="zOw8amXD0q2Xxl5ATmKY-303" vertex="1">
          <mxGeometry x="159" width="158" height="40" as="geometry">
            <mxRectangle width="158" height="40" as="alternateBounds" />
          </mxGeometry>
        </mxCell>
        <mxCell id="zOw8amXD0q2Xxl5ATmKY-306" value="" style="shape=tableRow;horizontal=0;startSize=0;swimlaneHead=0;swimlaneBody=0;strokeColor=inherit;top=0;left=0;bottom=0;right=0;collapsible=0;dropTarget=0;fillColor=none;points=[[0,0.5],[1,0.5]];portConstraint=eastwest;fontSize=16;shadow=0;" parent="zOw8amXD0q2Xxl5ATmKY-299" vertex="1">
          <mxGeometry y="110" width="317" height="40" as="geometry" />
        </mxCell>
        <mxCell id="zOw8amXD0q2Xxl5ATmKY-307" value="Mother Name" style="shape=partialRectangle;html=1;connectable=0;strokeColor=inherit;overflow=hidden;fillColor=none;top=0;left=0;bottom=0;right=0;pointerEvents=1;fontSize=16;shadow=0;fontStyle=1;fontColor=light-dark(#000000,#CCCCFF);align=left;verticalAlign=middle;labelBackgroundColor=none;labelBorderColor=none;textShadow=0;whiteSpace=wrap;spacingTop=0;spacing=2;spacingLeft=13;" parent="zOw8amXD0q2Xxl5ATmKY-306" vertex="1">
          <mxGeometry width="159" height="40" as="geometry">
            <mxRectangle width="159" height="40" as="alternateBounds" />
          </mxGeometry>
        </mxCell>
        <mxCell id="zOw8amXD0q2Xxl5ATmKY-308" value="255" style="shape=partialRectangle;html=1;whiteSpace=wrap;connectable=0;strokeColor=inherit;overflow=hidden;fillColor=none;top=0;left=0;bottom=0;right=0;pointerEvents=1;fontSize=16;shadow=0;" parent="zOw8amXD0q2Xxl5ATmKY-306" vertex="1">
          <mxGeometry x="159" width="158" height="40" as="geometry">
            <mxRectangle width="158" height="40" as="alternateBounds" />
          </mxGeometry>
        </mxCell>
        <mxCell id="zOw8amXD0q2Xxl5ATmKY-309" style="shape=tableRow;horizontal=0;startSize=0;swimlaneHead=0;swimlaneBody=0;strokeColor=inherit;top=0;left=0;bottom=0;right=0;collapsible=0;dropTarget=0;fillColor=none;points=[[0,0.5],[1,0.5]];portConstraint=eastwest;fontSize=16;shadow=0;" parent="zOw8amXD0q2Xxl5ATmKY-299" vertex="1">
          <mxGeometry y="150" width="317" height="40" as="geometry" />
        </mxCell>
        <mxCell id="zOw8amXD0q2Xxl5ATmKY-310" value="Condition Type" style="shape=partialRectangle;html=1;connectable=0;strokeColor=inherit;overflow=hidden;fillColor=none;top=0;left=0;bottom=0;right=0;pointerEvents=1;fontSize=16;shadow=0;fontStyle=1;fontColor=light-dark(#000000,#CCCCFF);align=left;verticalAlign=middle;labelBackgroundColor=none;labelBorderColor=none;textShadow=0;whiteSpace=wrap;spacingTop=0;spacing=2;spacingLeft=13;" parent="zOw8amXD0q2Xxl5ATmKY-309" vertex="1">
          <mxGeometry width="159" height="40" as="geometry">
            <mxRectangle width="159" height="40" as="alternateBounds" />
          </mxGeometry>
        </mxCell>
        <mxCell id="zOw8amXD0q2Xxl5ATmKY-311" value="Enum" style="shape=partialRectangle;html=1;whiteSpace=wrap;connectable=0;strokeColor=inherit;overflow=hidden;fillColor=none;top=0;left=0;bottom=0;right=0;pointerEvents=1;fontSize=16;shadow=0;" parent="zOw8amXD0q2Xxl5ATmKY-309" vertex="1">
          <mxGeometry x="159" width="158" height="40" as="geometry">
            <mxRectangle width="158" height="40" as="alternateBounds" />
          </mxGeometry>
        </mxCell>
        <mxCell id="zOw8amXD0q2Xxl5ATmKY-312" style="shape=tableRow;horizontal=0;startSize=0;swimlaneHead=0;swimlaneBody=0;strokeColor=inherit;top=0;left=0;bottom=0;right=0;collapsible=0;dropTarget=0;fillColor=none;points=[[0,0.5],[1,0.5]];portConstraint=eastwest;fontSize=16;shadow=0;" parent="zOw8amXD0q2Xxl5ATmKY-299" vertex="1">
          <mxGeometry y="190" width="317" height="40" as="geometry" />
        </mxCell>
        <mxCell id="zOw8amXD0q2Xxl5ATmKY-313" value="Activity" style="shape=partialRectangle;html=1;connectable=0;strokeColor=inherit;overflow=hidden;fillColor=none;top=0;left=0;bottom=0;right=0;pointerEvents=1;fontSize=16;shadow=0;fontStyle=1;fontColor=light-dark(#000000,#CCCCFF);align=left;verticalAlign=middle;labelBackgroundColor=none;labelBorderColor=none;textShadow=0;whiteSpace=wrap;spacingTop=0;spacing=2;spacingLeft=13;" parent="zOw8amXD0q2Xxl5ATmKY-312" vertex="1">
          <mxGeometry width="159" height="40" as="geometry">
            <mxRectangle width="159" height="40" as="alternateBounds" />
          </mxGeometry>
        </mxCell>
        <mxCell id="zOw8amXD0q2Xxl5ATmKY-314" value="Enum" style="shape=partialRectangle;html=1;whiteSpace=wrap;connectable=0;strokeColor=inherit;overflow=hidden;fillColor=none;top=0;left=0;bottom=0;right=0;pointerEvents=1;fontSize=16;shadow=0;" parent="zOw8amXD0q2Xxl5ATmKY-312" vertex="1">
          <mxGeometry x="159" width="158" height="40" as="geometry">
            <mxRectangle width="158" height="40" as="alternateBounds" />
          </mxGeometry>
        </mxCell>
        <mxCell id="zOw8amXD0q2Xxl5ATmKY-315" style="shape=tableRow;horizontal=0;startSize=0;swimlaneHead=0;swimlaneBody=0;strokeColor=inherit;top=0;left=0;bottom=0;right=0;collapsible=0;dropTarget=0;fillColor=none;points=[[0,0.5],[1,0.5]];portConstraint=eastwest;fontSize=16;shadow=0;" parent="zOw8amXD0q2Xxl5ATmKY-299" vertex="1">
          <mxGeometry y="230" width="317" height="40" as="geometry" />
        </mxCell>
        <mxCell id="zOw8amXD0q2Xxl5ATmKY-316" value="Informations" style="shape=partialRectangle;html=1;connectable=0;strokeColor=inherit;overflow=hidden;fillColor=none;top=0;left=0;bottom=0;right=0;pointerEvents=1;fontSize=16;shadow=0;fontStyle=1;fontColor=light-dark(#000000,#CCCCFF);align=left;verticalAlign=middle;labelBackgroundColor=none;labelBorderColor=none;textShadow=0;whiteSpace=wrap;spacingTop=0;spacing=2;spacingLeft=13;" parent="zOw8amXD0q2Xxl5ATmKY-315" vertex="1">
          <mxGeometry width="159" height="40" as="geometry">
            <mxRectangle width="159" height="40" as="alternateBounds" />
          </mxGeometry>
        </mxCell>
        <mxCell id="zOw8amXD0q2Xxl5ATmKY-317" value="Text" style="shape=partialRectangle;html=1;whiteSpace=wrap;connectable=0;strokeColor=inherit;overflow=hidden;fillColor=none;top=0;left=0;bottom=0;right=0;pointerEvents=1;fontSize=16;shadow=0;" parent="zOw8amXD0q2Xxl5ATmKY-315" vertex="1">
          <mxGeometry x="159" width="158" height="40" as="geometry">
            <mxRectangle width="158" height="40" as="alternateBounds" />
          </mxGeometry>
        </mxCell>
        <mxCell id="zOw8amXD0q2Xxl5ATmKY-318" style="shape=tableRow;horizontal=0;startSize=0;swimlaneHead=0;swimlaneBody=0;strokeColor=inherit;top=0;left=0;bottom=0;right=0;collapsible=0;dropTarget=0;fillColor=none;points=[[0,0.5],[1,0.5]];portConstraint=eastwest;fontSize=16;shadow=0;" parent="zOw8amXD0q2Xxl5ATmKY-299" vertex="1">
          <mxGeometry y="270" width="317" height="40" as="geometry" />
        </mxCell>
        <mxCell id="zOw8amXD0q2Xxl5ATmKY-319" value="Descriptions" style="shape=partialRectangle;html=1;connectable=0;strokeColor=inherit;overflow=hidden;fillColor=none;top=0;left=0;bottom=0;right=0;pointerEvents=1;fontSize=16;shadow=0;fontStyle=1;fontColor=light-dark(#000000,#CCCCFF);align=left;verticalAlign=middle;labelBackgroundColor=none;labelBorderColor=none;textShadow=0;whiteSpace=wrap;spacingTop=0;spacing=2;spacingLeft=13;" parent="zOw8amXD0q2Xxl5ATmKY-318" vertex="1">
          <mxGeometry width="159" height="40" as="geometry">
            <mxRectangle width="159" height="40" as="alternateBounds" />
          </mxGeometry>
        </mxCell>
        <mxCell id="zOw8amXD0q2Xxl5ATmKY-320" value="Text" style="shape=partialRectangle;html=1;whiteSpace=wrap;connectable=0;strokeColor=inherit;overflow=hidden;fillColor=none;top=0;left=0;bottom=0;right=0;pointerEvents=1;fontSize=16;shadow=0;" parent="zOw8amXD0q2Xxl5ATmKY-318" vertex="1">
          <mxGeometry x="159" width="158" height="40" as="geometry">
            <mxRectangle width="158" height="40" as="alternateBounds" />
          </mxGeometry>
        </mxCell>
        <mxCell id="zOw8amXD0q2Xxl5ATmKY-321" style="shape=tableRow;horizontal=0;startSize=0;swimlaneHead=0;swimlaneBody=0;strokeColor=inherit;top=0;left=0;bottom=0;right=0;collapsible=0;dropTarget=0;fillColor=none;points=[[0,0.5],[1,0.5]];portConstraint=eastwest;fontSize=16;shadow=0;" parent="zOw8amXD0q2Xxl5ATmKY-299" vertex="1">
          <mxGeometry y="310" width="317" height="40" as="geometry" />
        </mxCell>
        <mxCell id="zOw8amXD0q2Xxl5ATmKY-322" value="Listing Number" style="shape=partialRectangle;html=1;connectable=0;strokeColor=inherit;overflow=hidden;fillColor=none;top=0;left=0;bottom=0;right=0;pointerEvents=1;fontSize=16;shadow=0;fontStyle=1;fontColor=light-dark(#000000,#CCCCFF);align=left;verticalAlign=middle;labelBackgroundColor=none;labelBorderColor=none;textShadow=0;whiteSpace=wrap;spacingTop=0;spacing=2;spacingLeft=13;" parent="zOw8amXD0q2Xxl5ATmKY-321" vertex="1">
          <mxGeometry width="159" height="40" as="geometry">
            <mxRectangle width="159" height="40" as="alternateBounds" />
          </mxGeometry>
        </mxCell>
        <mxCell id="zOw8amXD0q2Xxl5ATmKY-323" value="50" style="shape=partialRectangle;html=1;whiteSpace=wrap;connectable=0;strokeColor=inherit;overflow=hidden;fillColor=none;top=0;left=0;bottom=0;right=0;pointerEvents=1;fontSize=16;shadow=0;" parent="zOw8amXD0q2Xxl5ATmKY-321" vertex="1">
          <mxGeometry x="159" width="158" height="40" as="geometry">
            <mxRectangle width="158" height="40" as="alternateBounds" />
          </mxGeometry>
        </mxCell>
        <mxCell id="zOw8amXD0q2Xxl5ATmKY-324" style="shape=tableRow;horizontal=0;startSize=0;swimlaneHead=0;swimlaneBody=0;strokeColor=inherit;top=0;left=0;bottom=0;right=0;collapsible=0;dropTarget=0;fillColor=none;points=[[0,0.5],[1,0.5]];portConstraint=eastwest;fontSize=16;shadow=0;" parent="zOw8amXD0q2Xxl5ATmKY-299" vertex="1">
          <mxGeometry y="350" width="317" height="40" as="geometry" />
        </mxCell>
        <mxCell id="zOw8amXD0q2Xxl5ATmKY-325" value="Serial Number" style="shape=partialRectangle;html=1;connectable=0;strokeColor=inherit;overflow=hidden;fillColor=none;top=0;left=0;bottom=0;right=0;pointerEvents=1;fontSize=16;shadow=0;fontStyle=1;fontColor=light-dark(#000000,#CCCCFF);align=left;verticalAlign=middle;labelBackgroundColor=none;labelBorderColor=none;textShadow=0;whiteSpace=wrap;spacingTop=0;spacing=2;spacingLeft=13;" parent="zOw8amXD0q2Xxl5ATmKY-324" vertex="1">
          <mxGeometry width="159" height="40" as="geometry">
            <mxRectangle width="159" height="40" as="alternateBounds" />
          </mxGeometry>
        </mxCell>
        <mxCell id="zOw8amXD0q2Xxl5ATmKY-326" value="50" style="shape=partialRectangle;html=1;whiteSpace=wrap;connectable=0;strokeColor=inherit;overflow=hidden;fillColor=none;top=0;left=0;bottom=0;right=0;pointerEvents=1;fontSize=16;shadow=0;" parent="zOw8amXD0q2Xxl5ATmKY-324" vertex="1">
          <mxGeometry x="159" width="158" height="40" as="geometry">
            <mxRectangle width="158" height="40" as="alternateBounds" />
          </mxGeometry>
        </mxCell>
        <mxCell id="zOw8amXD0q2Xxl5ATmKY-327" style="shape=tableRow;horizontal=0;startSize=0;swimlaneHead=0;swimlaneBody=0;strokeColor=inherit;top=0;left=0;bottom=0;right=0;collapsible=0;dropTarget=0;fillColor=none;points=[[0,0.5],[1,0.5]];portConstraint=eastwest;fontSize=16;shadow=0;" parent="zOw8amXD0q2Xxl5ATmKY-299" vertex="1">
          <mxGeometry y="390" width="317" height="40" as="geometry" />
        </mxCell>
        <mxCell id="zOw8amXD0q2Xxl5ATmKY-328" value="Risk Number" style="shape=partialRectangle;html=1;connectable=0;strokeColor=inherit;overflow=hidden;fillColor=none;top=0;left=0;bottom=0;right=0;pointerEvents=1;fontSize=16;shadow=0;fontStyle=1;fontColor=light-dark(#000000,#CCCCFF);align=left;verticalAlign=middle;labelBackgroundColor=none;labelBorderColor=none;textShadow=0;whiteSpace=wrap;spacingTop=0;spacing=2;spacingLeft=13;" parent="zOw8amXD0q2Xxl5ATmKY-327" vertex="1">
          <mxGeometry width="159" height="40" as="geometry">
            <mxRectangle width="159" height="40" as="alternateBounds" />
          </mxGeometry>
        </mxCell>
        <mxCell id="zOw8amXD0q2Xxl5ATmKY-329" value="50" style="shape=partialRectangle;html=1;whiteSpace=wrap;connectable=0;strokeColor=inherit;overflow=hidden;fillColor=none;top=0;left=0;bottom=0;right=0;pointerEvents=1;fontSize=16;shadow=0;" parent="zOw8amXD0q2Xxl5ATmKY-327" vertex="1">
          <mxGeometry x="159" width="158" height="40" as="geometry">
            <mxRectangle width="158" height="40" as="alternateBounds" />
          </mxGeometry>
        </mxCell>
        <mxCell id="zOw8amXD0q2Xxl5ATmKY-330" style="shape=tableRow;horizontal=0;startSize=0;swimlaneHead=0;swimlaneBody=0;strokeColor=inherit;top=0;left=0;bottom=0;right=0;collapsible=0;dropTarget=0;fillColor=none;points=[[0,0.5],[1,0.5]];portConstraint=eastwest;fontSize=16;shadow=0;" parent="zOw8amXD0q2Xxl5ATmKY-299" vertex="1">
          <mxGeometry y="430" width="317" height="40" as="geometry" />
        </mxCell>
        <mxCell id="zOw8amXD0q2Xxl5ATmKY-331" value="Risk Category" style="shape=partialRectangle;html=1;connectable=0;strokeColor=inherit;overflow=hidden;fillColor=none;top=0;left=0;bottom=0;right=0;pointerEvents=1;fontSize=16;shadow=0;fontStyle=1;fontColor=light-dark(#000000,#CCCCFF);align=left;verticalAlign=middle;labelBackgroundColor=none;labelBorderColor=none;textShadow=0;whiteSpace=wrap;spacingTop=0;spacing=2;spacingLeft=13;" parent="zOw8amXD0q2Xxl5ATmKY-330" vertex="1">
          <mxGeometry width="159" height="40" as="geometry">
            <mxRectangle width="159" height="40" as="alternateBounds" />
          </mxGeometry>
        </mxCell>
        <mxCell id="zOw8amXD0q2Xxl5ATmKY-332" value="Enum" style="shape=partialRectangle;html=1;whiteSpace=wrap;connectable=0;strokeColor=inherit;overflow=hidden;fillColor=none;top=0;left=0;bottom=0;right=0;pointerEvents=1;fontSize=16;shadow=0;" parent="zOw8amXD0q2Xxl5ATmKY-330" vertex="1">
          <mxGeometry x="159" width="158" height="40" as="geometry">
            <mxRectangle width="158" height="40" as="alternateBounds" />
          </mxGeometry>
        </mxCell>
        <mxCell id="zOw8amXD0q2Xxl5ATmKY-333" style="shape=tableRow;horizontal=0;startSize=0;swimlaneHead=0;swimlaneBody=0;strokeColor=inherit;top=0;left=0;bottom=0;right=0;collapsible=0;dropTarget=0;fillColor=none;points=[[0,0.5],[1,0.5]];portConstraint=eastwest;fontSize=16;shadow=0;" parent="zOw8amXD0q2Xxl5ATmKY-299" vertex="1">
          <mxGeometry y="470" width="317" height="40" as="geometry" />
        </mxCell>
        <mxCell id="zOw8amXD0q2Xxl5ATmKY-334" value="Images" style="shape=partialRectangle;html=1;connectable=0;strokeColor=inherit;overflow=hidden;fillColor=none;top=0;left=0;bottom=0;right=0;pointerEvents=1;fontSize=16;shadow=0;fontStyle=1;fontColor=light-dark(#000000,#CCCCFF);align=left;verticalAlign=middle;labelBackgroundColor=none;labelBorderColor=none;textShadow=0;whiteSpace=wrap;spacingTop=0;spacing=2;spacingLeft=13;" parent="zOw8amXD0q2Xxl5ATmKY-333" vertex="1">
          <mxGeometry width="159" height="40" as="geometry">
            <mxRectangle width="159" height="40" as="alternateBounds" />
          </mxGeometry>
        </mxCell>
        <mxCell id="zOw8amXD0q2Xxl5ATmKY-335" value="Folder ID" style="shape=partialRectangle;html=1;whiteSpace=wrap;connectable=0;strokeColor=inherit;overflow=hidden;fillColor=none;top=0;left=0;bottom=0;right=0;pointerEvents=1;fontSize=16;shadow=0;" parent="zOw8amXD0q2Xxl5ATmKY-333" vertex="1">
          <mxGeometry x="159" width="158" height="40" as="geometry">
            <mxRectangle width="158" height="40" as="alternateBounds" />
          </mxGeometry>
        </mxCell>
        <mxCell id="zOw8amXD0q2Xxl5ATmKY-361" value="Cases" style="shape=table;startSize=30;container=1;collapsible=0;childLayout=tableLayout;strokeColor=#6c8ebf;fontSize=16;fillColor=#dae8fc;" parent="1" vertex="1">
          <mxGeometry x="620" y="74" width="317" height="590" as="geometry" />
        </mxCell>
        <mxCell id="zOw8amXD0q2Xxl5ATmKY-362" value="" style="shape=tableRow;horizontal=0;startSize=0;swimlaneHead=0;swimlaneBody=0;strokeColor=inherit;top=0;left=0;bottom=0;right=0;collapsible=0;dropTarget=0;fillColor=none;points=[[0,0.5],[1,0.5]];portConstraint=eastwest;fontSize=16;shadow=0;" parent="zOw8amXD0q2Xxl5ATmKY-361" vertex="1">
          <mxGeometry y="30" width="317" height="40" as="geometry" />
        </mxCell>
        <mxCell id="zOw8amXD0q2Xxl5ATmKY-363" value="&lt;span style=&quot;&quot;&gt;&lt;span&gt;ID&lt;/span&gt;&lt;/span&gt;" style="shape=partialRectangle;html=1;connectable=0;strokeColor=inherit;overflow=hidden;fillColor=none;top=0;left=0;bottom=0;right=0;pointerEvents=1;fontSize=16;shadow=0;fontStyle=1;fontColor=light-dark(#000000,#CCCCFF);align=left;verticalAlign=middle;labelBackgroundColor=none;labelBorderColor=none;textShadow=0;whiteSpace=wrap;spacingTop=0;spacing=2;spacingLeft=13;" parent="zOw8amXD0q2Xxl5ATmKY-362" vertex="1">
          <mxGeometry width="159" height="40" as="geometry">
            <mxRectangle width="159" height="40" as="alternateBounds" />
          </mxGeometry>
        </mxCell>
        <mxCell id="zOw8amXD0q2Xxl5ATmKY-364" value="64" style="shape=partialRectangle;html=1;whiteSpace=wrap;connectable=0;strokeColor=inherit;overflow=hidden;fillColor=none;top=0;left=0;bottom=0;right=0;pointerEvents=1;fontSize=16;shadow=0;" parent="zOw8amXD0q2Xxl5ATmKY-362" vertex="1">
          <mxGeometry x="159" width="158" height="40" as="geometry">
            <mxRectangle width="158" height="40" as="alternateBounds" />
          </mxGeometry>
        </mxCell>
        <mxCell id="zOw8amXD0q2Xxl5ATmKY-406" style="shape=tableRow;horizontal=0;startSize=0;swimlaneHead=0;swimlaneBody=0;strokeColor=inherit;top=0;left=0;bottom=0;right=0;collapsible=0;dropTarget=0;fillColor=none;points=[[0,0.5],[1,0.5]];portConstraint=eastwest;fontSize=16;shadow=0;" parent="zOw8amXD0q2Xxl5ATmKY-361" vertex="1">
          <mxGeometry y="70" width="317" height="40" as="geometry" />
        </mxCell>
        <mxCell id="zOw8amXD0q2Xxl5ATmKY-407" value="Number" style="shape=partialRectangle;html=1;connectable=0;strokeColor=inherit;overflow=hidden;fillColor=none;top=0;left=0;bottom=0;right=0;pointerEvents=1;fontSize=16;shadow=0;fontStyle=1;fontColor=light-dark(#000000,#CCCCFF);align=left;verticalAlign=middle;labelBackgroundColor=none;labelBorderColor=none;textShadow=0;whiteSpace=wrap;spacingTop=0;spacing=2;spacingLeft=13;" parent="zOw8amXD0q2Xxl5ATmKY-406" vertex="1">
          <mxGeometry width="159" height="40" as="geometry">
            <mxRectangle width="159" height="40" as="alternateBounds" />
          </mxGeometry>
        </mxCell>
        <mxCell id="zOw8amXD0q2Xxl5ATmKY-408" value="Int" style="shape=partialRectangle;html=1;whiteSpace=wrap;connectable=0;strokeColor=inherit;overflow=hidden;fillColor=none;top=0;left=0;bottom=0;right=0;pointerEvents=1;fontSize=16;shadow=0;" parent="zOw8amXD0q2Xxl5ATmKY-406" vertex="1">
          <mxGeometry x="159" width="158" height="40" as="geometry">
            <mxRectangle width="158" height="40" as="alternateBounds" />
          </mxGeometry>
        </mxCell>
        <mxCell id="zOw8amXD0q2Xxl5ATmKY-365" value="" style="shape=tableRow;horizontal=0;startSize=0;swimlaneHead=0;swimlaneBody=0;strokeColor=inherit;top=0;left=0;bottom=0;right=0;collapsible=0;dropTarget=0;fillColor=none;points=[[0,0.5],[1,0.5]];portConstraint=eastwest;fontSize=16;shadow=0;" parent="zOw8amXD0q2Xxl5ATmKY-361" vertex="1">
          <mxGeometry y="110" width="317" height="40" as="geometry" />
        </mxCell>
        <mxCell id="zOw8amXD0q2Xxl5ATmKY-366" value="Case Number" style="shape=partialRectangle;html=1;connectable=0;strokeColor=inherit;overflow=hidden;fillColor=none;top=0;left=0;bottom=0;right=0;pointerEvents=1;fontSize=16;shadow=0;fontStyle=1;fontColor=light-dark(#000000,#CCCCFF);align=left;verticalAlign=middle;labelBackgroundColor=none;labelBorderColor=none;textShadow=0;whiteSpace=wrap;spacingTop=0;spacing=2;spacingLeft=13;" parent="zOw8amXD0q2Xxl5ATmKY-365" vertex="1">
          <mxGeometry width="159" height="40" as="geometry">
            <mxRectangle width="159" height="40" as="alternateBounds" />
          </mxGeometry>
        </mxCell>
        <mxCell id="zOw8amXD0q2Xxl5ATmKY-367" value="50" style="shape=partialRectangle;html=1;whiteSpace=wrap;connectable=0;strokeColor=inherit;overflow=hidden;fillColor=none;top=0;left=0;bottom=0;right=0;pointerEvents=1;fontSize=16;shadow=0;" parent="zOw8amXD0q2Xxl5ATmKY-365" vertex="1">
          <mxGeometry x="159" width="158" height="40" as="geometry">
            <mxRectangle width="158" height="40" as="alternateBounds" />
          </mxGeometry>
        </mxCell>
        <mxCell id="zOw8amXD0q2Xxl5ATmKY-368" value="" style="shape=tableRow;horizontal=0;startSize=0;swimlaneHead=0;swimlaneBody=0;strokeColor=inherit;top=0;left=0;bottom=0;right=0;collapsible=0;dropTarget=0;fillColor=none;points=[[0,0.5],[1,0.5]];portConstraint=eastwest;fontSize=16;shadow=0;" parent="zOw8amXD0q2Xxl5ATmKY-361" vertex="1">
          <mxGeometry y="150" width="317" height="40" as="geometry" />
        </mxCell>
        <mxCell id="zOw8amXD0q2Xxl5ATmKY-369" value="Case Year" style="shape=partialRectangle;html=1;connectable=0;strokeColor=inherit;overflow=hidden;fillColor=none;top=0;left=0;bottom=0;right=0;pointerEvents=1;fontSize=16;shadow=0;fontStyle=1;fontColor=light-dark(#000000,#CCCCFF);align=left;verticalAlign=middle;labelBackgroundColor=none;labelBorderColor=none;textShadow=0;whiteSpace=wrap;spacingTop=0;spacing=2;spacingLeft=13;" parent="zOw8amXD0q2Xxl5ATmKY-368" vertex="1">
          <mxGeometry width="159" height="40" as="geometry">
            <mxRectangle width="159" height="40" as="alternateBounds" />
          </mxGeometry>
        </mxCell>
        <mxCell id="zOw8amXD0q2Xxl5ATmKY-370" value="Year" style="shape=partialRectangle;html=1;whiteSpace=wrap;connectable=0;strokeColor=inherit;overflow=hidden;fillColor=none;top=0;left=0;bottom=0;right=0;pointerEvents=1;fontSize=16;shadow=0;" parent="zOw8amXD0q2Xxl5ATmKY-368" vertex="1">
          <mxGeometry x="159" width="158" height="40" as="geometry">
            <mxRectangle width="158" height="40" as="alternateBounds" />
          </mxGeometry>
        </mxCell>
        <mxCell id="zOw8amXD0q2Xxl5ATmKY-371" style="shape=tableRow;horizontal=0;startSize=0;swimlaneHead=0;swimlaneBody=0;strokeColor=inherit;top=0;left=0;bottom=0;right=0;collapsible=0;dropTarget=0;fillColor=none;points=[[0,0.5],[1,0.5]];portConstraint=eastwest;fontSize=16;shadow=0;" parent="zOw8amXD0q2Xxl5ATmKY-361" vertex="1">
          <mxGeometry y="190" width="317" height="40" as="geometry" />
        </mxCell>
        <mxCell id="zOw8amXD0q2Xxl5ATmKY-372" value="Case Type" style="shape=partialRectangle;html=1;connectable=0;strokeColor=inherit;overflow=hidden;fillColor=none;top=0;left=0;bottom=0;right=0;pointerEvents=1;fontSize=16;shadow=0;fontStyle=1;fontColor=light-dark(#000000,#CCCCFF);align=left;verticalAlign=middle;labelBackgroundColor=none;labelBorderColor=none;textShadow=0;whiteSpace=wrap;spacingTop=0;spacing=2;spacingLeft=13;" parent="zOw8amXD0q2Xxl5ATmKY-371" vertex="1">
          <mxGeometry width="159" height="40" as="geometry">
            <mxRectangle width="159" height="40" as="alternateBounds" />
          </mxGeometry>
        </mxCell>
        <mxCell id="zOw8amXD0q2Xxl5ATmKY-373" value="Enum" style="shape=partialRectangle;html=1;whiteSpace=wrap;connectable=0;strokeColor=inherit;overflow=hidden;fillColor=none;top=0;left=0;bottom=0;right=0;pointerEvents=1;fontSize=16;shadow=0;" parent="zOw8amXD0q2Xxl5ATmKY-371" vertex="1">
          <mxGeometry x="159" width="158" height="40" as="geometry">
            <mxRectangle width="158" height="40" as="alternateBounds" />
          </mxGeometry>
        </mxCell>
        <mxCell id="zOw8amXD0q2Xxl5ATmKY-374" style="shape=tableRow;horizontal=0;startSize=0;swimlaneHead=0;swimlaneBody=0;strokeColor=inherit;top=0;left=0;bottom=0;right=0;collapsible=0;dropTarget=0;fillColor=none;points=[[0,0.5],[1,0.5]];portConstraint=eastwest;fontSize=16;shadow=0;" parent="zOw8amXD0q2Xxl5ATmKY-361" vertex="1">
          <mxGeometry y="230" width="317" height="40" as="geometry" />
        </mxCell>
        <mxCell id="zOw8amXD0q2Xxl5ATmKY-375" value="Case Station" style="shape=partialRectangle;html=1;connectable=0;strokeColor=inherit;overflow=hidden;fillColor=none;top=0;left=0;bottom=0;right=0;pointerEvents=1;fontSize=16;shadow=0;fontStyle=1;fontColor=light-dark(#000000,#CCCCFF);align=left;verticalAlign=middle;labelBackgroundColor=none;labelBorderColor=none;textShadow=0;whiteSpace=wrap;spacingTop=0;spacing=2;spacingLeft=13;" parent="zOw8amXD0q2Xxl5ATmKY-374" vertex="1">
          <mxGeometry width="159" height="40" as="geometry">
            <mxRectangle width="159" height="40" as="alternateBounds" />
          </mxGeometry>
        </mxCell>
        <mxCell id="zOw8amXD0q2Xxl5ATmKY-376" value="255" style="shape=partialRectangle;html=1;whiteSpace=wrap;connectable=0;strokeColor=inherit;overflow=hidden;fillColor=none;top=0;left=0;bottom=0;right=0;pointerEvents=1;fontSize=16;shadow=0;" parent="zOw8amXD0q2Xxl5ATmKY-374" vertex="1">
          <mxGeometry x="159" width="158" height="40" as="geometry">
            <mxRectangle width="158" height="40" as="alternateBounds" />
          </mxGeometry>
        </mxCell>
        <mxCell id="zOw8amXD0q2Xxl5ATmKY-377" style="shape=tableRow;horizontal=0;startSize=0;swimlaneHead=0;swimlaneBody=0;strokeColor=inherit;top=0;left=0;bottom=0;right=0;collapsible=0;dropTarget=0;fillColor=none;points=[[0,0.5],[1,0.5]];portConstraint=eastwest;fontSize=16;shadow=0;" parent="zOw8amXD0q2Xxl5ATmKY-361" vertex="1">
          <mxGeometry y="270" width="317" height="40" as="geometry" />
        </mxCell>
        <mxCell id="zOw8amXD0q2Xxl5ATmKY-378" value="Case Info" style="shape=partialRectangle;html=1;connectable=0;strokeColor=inherit;overflow=hidden;fillColor=none;top=0;left=0;bottom=0;right=0;pointerEvents=1;fontSize=16;shadow=0;fontStyle=1;fontColor=light-dark(#000000,#CCCCFF);align=left;verticalAlign=middle;labelBackgroundColor=none;labelBorderColor=none;textShadow=0;whiteSpace=wrap;spacingTop=0;spacing=2;spacingLeft=13;" parent="zOw8amXD0q2Xxl5ATmKY-377" vertex="1">
          <mxGeometry width="159" height="40" as="geometry">
            <mxRectangle width="159" height="40" as="alternateBounds" />
          </mxGeometry>
        </mxCell>
        <mxCell id="zOw8amXD0q2Xxl5ATmKY-379" value="Text" style="shape=partialRectangle;html=1;whiteSpace=wrap;connectable=0;strokeColor=inherit;overflow=hidden;fillColor=none;top=0;left=0;bottom=0;right=0;pointerEvents=1;fontSize=16;shadow=0;" parent="zOw8amXD0q2Xxl5ATmKY-377" vertex="1">
          <mxGeometry x="159" width="158" height="40" as="geometry">
            <mxRectangle width="158" height="40" as="alternateBounds" />
          </mxGeometry>
        </mxCell>
        <mxCell id="zOw8amXD0q2Xxl5ATmKY-380" style="shape=tableRow;horizontal=0;startSize=0;swimlaneHead=0;swimlaneBody=0;strokeColor=inherit;top=0;left=0;bottom=0;right=0;collapsible=0;dropTarget=0;fillColor=none;points=[[0,0.5],[1,0.5]];portConstraint=eastwest;fontSize=16;shadow=0;" parent="zOw8amXD0q2Xxl5ATmKY-361" vertex="1">
          <mxGeometry y="310" width="317" height="40" as="geometry" />
        </mxCell>
        <mxCell id="zOw8amXD0q2Xxl5ATmKY-381" value="Minutes Number" style="shape=partialRectangle;html=1;connectable=0;strokeColor=inherit;overflow=hidden;fillColor=none;top=0;left=0;bottom=0;right=0;pointerEvents=1;fontSize=16;shadow=0;fontStyle=1;fontColor=light-dark(#000000,#CCCCFF);align=left;verticalAlign=middle;labelBackgroundColor=none;labelBorderColor=none;textShadow=0;whiteSpace=wrap;spacingTop=0;spacing=2;spacingLeft=13;" parent="zOw8amXD0q2Xxl5ATmKY-380" vertex="1">
          <mxGeometry width="159" height="40" as="geometry">
            <mxRectangle width="159" height="40" as="alternateBounds" />
          </mxGeometry>
        </mxCell>
        <mxCell id="zOw8amXD0q2Xxl5ATmKY-382" value="50" style="shape=partialRectangle;html=1;whiteSpace=wrap;connectable=0;strokeColor=inherit;overflow=hidden;fillColor=none;top=0;left=0;bottom=0;right=0;pointerEvents=1;fontSize=16;shadow=0;" parent="zOw8amXD0q2Xxl5ATmKY-380" vertex="1">
          <mxGeometry x="159" width="158" height="40" as="geometry">
            <mxRectangle width="158" height="40" as="alternateBounds" />
          </mxGeometry>
        </mxCell>
        <mxCell id="zOw8amXD0q2Xxl5ATmKY-383" style="shape=tableRow;horizontal=0;startSize=0;swimlaneHead=0;swimlaneBody=0;strokeColor=inherit;top=0;left=0;bottom=0;right=0;collapsible=0;dropTarget=0;fillColor=none;points=[[0,0.5],[1,0.5]];portConstraint=eastwest;fontSize=16;shadow=0;" parent="zOw8amXD0q2Xxl5ATmKY-361" vertex="1">
          <mxGeometry y="350" width="317" height="40" as="geometry" />
        </mxCell>
        <mxCell id="zOw8amXD0q2Xxl5ATmKY-384" value="Crime Type" style="shape=partialRectangle;html=1;connectable=0;strokeColor=inherit;overflow=hidden;fillColor=none;top=0;left=0;bottom=0;right=0;pointerEvents=1;fontSize=16;shadow=0;fontStyle=1;fontColor=light-dark(#000000,#CCCCFF);align=left;verticalAlign=middle;labelBackgroundColor=none;labelBorderColor=none;textShadow=0;whiteSpace=wrap;spacingTop=0;spacing=2;spacingLeft=13;" parent="zOw8amXD0q2Xxl5ATmKY-383" vertex="1">
          <mxGeometry width="159" height="40" as="geometry">
            <mxRectangle width="159" height="40" as="alternateBounds" />
          </mxGeometry>
        </mxCell>
        <mxCell id="zOw8amXD0q2Xxl5ATmKY-385" value="Enum" style="shape=partialRectangle;html=1;whiteSpace=wrap;connectable=0;strokeColor=inherit;overflow=hidden;fillColor=none;top=0;left=0;bottom=0;right=0;pointerEvents=1;fontSize=16;shadow=0;" parent="zOw8amXD0q2Xxl5ATmKY-383" vertex="1">
          <mxGeometry x="159" width="158" height="40" as="geometry">
            <mxRectangle width="158" height="40" as="alternateBounds" />
          </mxGeometry>
        </mxCell>
        <mxCell id="zOw8amXD0q2Xxl5ATmKY-386" style="shape=tableRow;horizontal=0;startSize=0;swimlaneHead=0;swimlaneBody=0;strokeColor=inherit;top=0;left=0;bottom=0;right=0;collapsible=0;dropTarget=0;fillColor=none;points=[[0,0.5],[1,0.5]];portConstraint=eastwest;fontSize=16;shadow=0;" parent="zOw8amXD0q2Xxl5ATmKY-361" vertex="1">
          <mxGeometry y="390" width="317" height="40" as="geometry" />
        </mxCell>
        <mxCell id="zOw8amXD0q2Xxl5ATmKY-387" value="Crime Date" style="shape=partialRectangle;html=1;connectable=0;strokeColor=inherit;overflow=hidden;fillColor=none;top=0;left=0;bottom=0;right=0;pointerEvents=1;fontSize=16;shadow=0;fontStyle=1;fontColor=light-dark(#000000,#CCCCFF);align=left;verticalAlign=middle;labelBackgroundColor=none;labelBorderColor=none;textShadow=0;whiteSpace=wrap;spacingTop=0;spacing=2;spacingLeft=13;" parent="zOw8amXD0q2Xxl5ATmKY-386" vertex="1">
          <mxGeometry width="159" height="40" as="geometry">
            <mxRectangle width="159" height="40" as="alternateBounds" />
          </mxGeometry>
        </mxCell>
        <mxCell id="zOw8amXD0q2Xxl5ATmKY-388" value="Date Time" style="shape=partialRectangle;html=1;whiteSpace=wrap;connectable=0;strokeColor=inherit;overflow=hidden;fillColor=none;top=0;left=0;bottom=0;right=0;pointerEvents=1;fontSize=16;shadow=0;" parent="zOw8amXD0q2Xxl5ATmKY-386" vertex="1">
          <mxGeometry x="159" width="158" height="40" as="geometry">
            <mxRectangle width="158" height="40" as="alternateBounds" />
          </mxGeometry>
        </mxCell>
        <mxCell id="zOw8amXD0q2Xxl5ATmKY-389" style="shape=tableRow;horizontal=0;startSize=0;swimlaneHead=0;swimlaneBody=0;strokeColor=inherit;top=0;left=0;bottom=0;right=0;collapsible=0;dropTarget=0;fillColor=none;points=[[0,0.5],[1,0.5]];portConstraint=eastwest;fontSize=16;shadow=0;" parent="zOw8amXD0q2Xxl5ATmKY-361" vertex="1">
          <mxGeometry y="430" width="317" height="40" as="geometry" />
        </mxCell>
        <mxCell id="zOw8amXD0q2Xxl5ATmKY-390" value="Crime Place" style="shape=partialRectangle;html=1;connectable=0;strokeColor=inherit;overflow=hidden;fillColor=none;top=0;left=0;bottom=0;right=0;pointerEvents=1;fontSize=16;shadow=0;fontStyle=1;fontColor=light-dark(#000000,#CCCCFF);align=left;verticalAlign=middle;labelBackgroundColor=none;labelBorderColor=none;textShadow=0;whiteSpace=wrap;spacingTop=0;spacing=2;spacingLeft=13;" parent="zOw8amXD0q2Xxl5ATmKY-389" vertex="1">
          <mxGeometry width="159" height="40" as="geometry">
            <mxRectangle width="159" height="40" as="alternateBounds" />
          </mxGeometry>
        </mxCell>
        <mxCell id="zOw8amXD0q2Xxl5ATmKY-391" value="Text" style="shape=partialRectangle;html=1;whiteSpace=wrap;connectable=0;strokeColor=inherit;overflow=hidden;fillColor=none;top=0;left=0;bottom=0;right=0;pointerEvents=1;fontSize=16;shadow=0;" parent="zOw8amXD0q2Xxl5ATmKY-389" vertex="1">
          <mxGeometry x="159" width="158" height="40" as="geometry">
            <mxRectangle width="158" height="40" as="alternateBounds" />
          </mxGeometry>
        </mxCell>
        <mxCell id="zOw8amXD0q2Xxl5ATmKY-392" style="shape=tableRow;horizontal=0;startSize=0;swimlaneHead=0;swimlaneBody=0;strokeColor=inherit;top=0;left=0;bottom=0;right=0;collapsible=0;dropTarget=0;fillColor=none;points=[[0,0.5],[1,0.5]];portConstraint=eastwest;fontSize=16;shadow=0;" parent="zOw8amXD0q2Xxl5ATmKY-361" vertex="1">
          <mxGeometry y="470" width="317" height="40" as="geometry" />
        </mxCell>
        <mxCell id="zOw8amXD0q2Xxl5ATmKY-393" value="Registered" style="shape=partialRectangle;html=1;connectable=0;strokeColor=inherit;overflow=hidden;fillColor=none;top=0;left=0;bottom=0;right=0;pointerEvents=1;fontSize=16;shadow=0;fontStyle=1;fontColor=light-dark(#000000,#CCCCFF);align=left;verticalAlign=middle;labelBackgroundColor=none;labelBorderColor=none;textShadow=0;whiteSpace=wrap;spacingTop=0;spacing=2;spacingLeft=13;" parent="zOw8amXD0q2Xxl5ATmKY-392" vertex="1">
          <mxGeometry width="159" height="40" as="geometry">
            <mxRectangle width="159" height="40" as="alternateBounds" />
          </mxGeometry>
        </mxCell>
        <mxCell id="zOw8amXD0q2Xxl5ATmKY-394" value="ID" style="shape=partialRectangle;html=1;whiteSpace=wrap;connectable=0;strokeColor=inherit;overflow=hidden;fillColor=none;top=0;left=0;bottom=0;right=0;pointerEvents=1;fontSize=16;shadow=0;" parent="zOw8amXD0q2Xxl5ATmKY-392" vertex="1">
          <mxGeometry x="159" width="158" height="40" as="geometry">
            <mxRectangle width="158" height="40" as="alternateBounds" />
          </mxGeometry>
        </mxCell>
        <mxCell id="zOw8amXD0q2Xxl5ATmKY-395" style="shape=tableRow;horizontal=0;startSize=0;swimlaneHead=0;swimlaneBody=0;strokeColor=inherit;top=0;left=0;bottom=0;right=0;collapsible=0;dropTarget=0;fillColor=none;points=[[0,0.5],[1,0.5]];portConstraint=eastwest;fontSize=16;shadow=0;" parent="zOw8amXD0q2Xxl5ATmKY-361" vertex="1">
          <mxGeometry y="510" width="317" height="40" as="geometry" />
        </mxCell>
        <mxCell id="zOw8amXD0q2Xxl5ATmKY-396" value="Victims" style="shape=partialRectangle;html=1;connectable=0;strokeColor=inherit;overflow=hidden;fillColor=none;top=0;left=0;bottom=0;right=0;pointerEvents=1;fontSize=16;shadow=0;fontStyle=1;fontColor=light-dark(#000000,#CCCCFF);align=left;verticalAlign=middle;labelBackgroundColor=none;labelBorderColor=none;textShadow=0;whiteSpace=wrap;spacingTop=0;spacing=2;spacingLeft=13;" parent="zOw8amXD0q2Xxl5ATmKY-395" vertex="1">
          <mxGeometry width="159" height="40" as="geometry">
            <mxRectangle width="159" height="40" as="alternateBounds" />
          </mxGeometry>
        </mxCell>
        <mxCell id="zOw8amXD0q2Xxl5ATmKY-397" value="ID" style="shape=partialRectangle;html=1;whiteSpace=wrap;connectable=0;strokeColor=inherit;overflow=hidden;fillColor=none;top=0;left=0;bottom=0;right=0;pointerEvents=1;fontSize=16;shadow=0;" parent="zOw8amXD0q2Xxl5ATmKY-395" vertex="1">
          <mxGeometry x="159" width="158" height="40" as="geometry">
            <mxRectangle width="158" height="40" as="alternateBounds" />
          </mxGeometry>
        </mxCell>
        <mxCell id="zOw8amXD0q2Xxl5ATmKY-398" style="shape=tableRow;horizontal=0;startSize=0;swimlaneHead=0;swimlaneBody=0;strokeColor=inherit;top=0;left=0;bottom=0;right=0;collapsible=0;dropTarget=0;fillColor=none;points=[[0,0.5],[1,0.5]];portConstraint=eastwest;fontSize=16;shadow=0;" parent="zOw8amXD0q2Xxl5ATmKY-361" vertex="1">
          <mxGeometry y="550" width="317" height="40" as="geometry" />
        </mxCell>
        <mxCell id="zOw8amXD0q2Xxl5ATmKY-399" value="Created At" style="shape=partialRectangle;html=1;connectable=0;strokeColor=inherit;overflow=hidden;fillColor=none;top=0;left=0;bottom=0;right=0;pointerEvents=1;fontSize=16;shadow=0;fontStyle=1;fontColor=light-dark(#000000,#CCCCFF);align=left;verticalAlign=middle;labelBackgroundColor=none;labelBorderColor=none;textShadow=0;whiteSpace=wrap;spacingTop=0;spacing=2;spacingLeft=13;" parent="zOw8amXD0q2Xxl5ATmKY-398" vertex="1">
          <mxGeometry width="159" height="40" as="geometry">
            <mxRectangle width="159" height="40" as="alternateBounds" />
          </mxGeometry>
        </mxCell>
        <mxCell id="zOw8amXD0q2Xxl5ATmKY-400" value="Date Time" style="shape=partialRectangle;html=1;whiteSpace=wrap;connectable=0;strokeColor=inherit;overflow=hidden;fillColor=none;top=0;left=0;bottom=0;right=0;pointerEvents=1;fontSize=16;shadow=0;" parent="zOw8amXD0q2Xxl5ATmKY-398" vertex="1">
          <mxGeometry x="159" width="158" height="40" as="geometry">
            <mxRectangle width="158" height="40" as="alternateBounds" />
          </mxGeometry>
        </mxCell>
        <mxCell id="0GWL6q7FT1iEk-ybayMw-1" value="Address" style="shape=table;startSize=30;container=1;collapsible=0;childLayout=tableLayout;strokeColor=#6c8ebf;fontSize=16;fillColor=#dae8fc;" vertex="1" parent="1">
          <mxGeometry x="-800" y="840" width="317" height="310" as="geometry" />
        </mxCell>
        <mxCell id="0GWL6q7FT1iEk-ybayMw-2" value="" style="shape=tableRow;horizontal=0;startSize=0;swimlaneHead=0;swimlaneBody=0;strokeColor=inherit;top=0;left=0;bottom=0;right=0;collapsible=0;dropTarget=0;fillColor=none;points=[[0,0.5],[1,0.5]];portConstraint=eastwest;fontSize=16;shadow=0;" vertex="1" parent="0GWL6q7FT1iEk-ybayMw-1">
          <mxGeometry y="30" width="317" height="40" as="geometry" />
        </mxCell>
        <mxCell id="0GWL6q7FT1iEk-ybayMw-3" value="&lt;span style=&quot;&quot;&gt;&lt;span&gt;ID&lt;/span&gt;&lt;/span&gt;" style="shape=partialRectangle;html=1;connectable=0;strokeColor=inherit;overflow=hidden;fillColor=none;top=0;left=0;bottom=0;right=0;pointerEvents=1;fontSize=16;shadow=0;fontStyle=1;fontColor=light-dark(#000000,#CCCCFF);align=left;verticalAlign=middle;labelBackgroundColor=none;labelBorderColor=none;textShadow=0;whiteSpace=wrap;spacingTop=0;spacing=2;spacingLeft=13;" vertex="1" parent="0GWL6q7FT1iEk-ybayMw-2">
          <mxGeometry width="159" height="40" as="geometry">
            <mxRectangle width="159" height="40" as="alternateBounds" />
          </mxGeometry>
        </mxCell>
        <mxCell id="0GWL6q7FT1iEk-ybayMw-4" value="64" style="shape=partialRectangle;html=1;whiteSpace=wrap;connectable=0;strokeColor=inherit;overflow=hidden;fillColor=none;top=0;left=0;bottom=0;right=0;pointerEvents=1;fontSize=16;shadow=0;" vertex="1" parent="0GWL6q7FT1iEk-ybayMw-2">
          <mxGeometry x="159" width="158" height="40" as="geometry">
            <mxRectangle width="158" height="40" as="alternateBounds" />
          </mxGeometry>
        </mxCell>
        <mxCell id="0GWL6q7FT1iEk-ybayMw-5" value="" style="shape=tableRow;horizontal=0;startSize=0;swimlaneHead=0;swimlaneBody=0;strokeColor=inherit;top=0;left=0;bottom=0;right=0;collapsible=0;dropTarget=0;fillColor=none;points=[[0,0.5],[1,0.5]];portConstraint=eastwest;fontSize=16;shadow=0;" vertex="1" parent="0GWL6q7FT1iEk-ybayMw-1">
          <mxGeometry y="70" width="317" height="40" as="geometry" />
        </mxCell>
        <mxCell id="0GWL6q7FT1iEk-ybayMw-6" value="Person ID" style="shape=partialRectangle;html=1;connectable=0;strokeColor=inherit;overflow=hidden;fillColor=none;top=0;left=0;bottom=0;right=0;pointerEvents=1;fontSize=16;shadow=0;fontStyle=1;fontColor=light-dark(#000000,#CCCCFF);align=left;verticalAlign=middle;labelBackgroundColor=none;labelBorderColor=none;textShadow=0;whiteSpace=wrap;spacingTop=0;spacing=2;spacingLeft=13;" vertex="1" parent="0GWL6q7FT1iEk-ybayMw-5">
          <mxGeometry width="159" height="40" as="geometry">
            <mxRectangle width="159" height="40" as="alternateBounds" />
          </mxGeometry>
        </mxCell>
        <mxCell id="0GWL6q7FT1iEk-ybayMw-7" value="64" style="shape=partialRectangle;html=1;whiteSpace=wrap;connectable=0;strokeColor=inherit;overflow=hidden;fillColor=none;top=0;left=0;bottom=0;right=0;pointerEvents=1;fontSize=16;shadow=0;" vertex="1" parent="0GWL6q7FT1iEk-ybayMw-5">
          <mxGeometry x="159" width="158" height="40" as="geometry">
            <mxRectangle width="158" height="40" as="alternateBounds" />
          </mxGeometry>
        </mxCell>
        <mxCell id="0GWL6q7FT1iEk-ybayMw-8" value="" style="shape=tableRow;horizontal=0;startSize=0;swimlaneHead=0;swimlaneBody=0;strokeColor=inherit;top=0;left=0;bottom=0;right=0;collapsible=0;dropTarget=0;fillColor=none;points=[[0,0.5],[1,0.5]];portConstraint=eastwest;fontSize=16;shadow=0;" vertex="1" parent="0GWL6q7FT1iEk-ybayMw-1">
          <mxGeometry y="110" width="317" height="40" as="geometry" />
        </mxCell>
        <mxCell id="0GWL6q7FT1iEk-ybayMw-9" value="Governorate" style="shape=partialRectangle;html=1;connectable=0;strokeColor=inherit;overflow=hidden;fillColor=none;top=0;left=0;bottom=0;right=0;pointerEvents=1;fontSize=16;shadow=0;fontStyle=1;fontColor=light-dark(#000000,#CCCCFF);align=left;verticalAlign=middle;labelBackgroundColor=none;labelBorderColor=none;textShadow=0;whiteSpace=wrap;spacingTop=0;spacing=2;spacingLeft=13;" vertex="1" parent="0GWL6q7FT1iEk-ybayMw-8">
          <mxGeometry width="159" height="40" as="geometry">
            <mxRectangle width="159" height="40" as="alternateBounds" />
          </mxGeometry>
        </mxCell>
        <mxCell id="0GWL6q7FT1iEk-ybayMw-10" value="Enum" style="shape=partialRectangle;html=1;whiteSpace=wrap;connectable=0;strokeColor=inherit;overflow=hidden;fillColor=none;top=0;left=0;bottom=0;right=0;pointerEvents=1;fontSize=16;shadow=0;" vertex="1" parent="0GWL6q7FT1iEk-ybayMw-8">
          <mxGeometry x="159" width="158" height="40" as="geometry">
            <mxRectangle width="158" height="40" as="alternateBounds" />
          </mxGeometry>
        </mxCell>
        <mxCell id="0GWL6q7FT1iEk-ybayMw-11" style="shape=tableRow;horizontal=0;startSize=0;swimlaneHead=0;swimlaneBody=0;strokeColor=inherit;top=0;left=0;bottom=0;right=0;collapsible=0;dropTarget=0;fillColor=none;points=[[0,0.5],[1,0.5]];portConstraint=eastwest;fontSize=16;shadow=0;" vertex="1" parent="0GWL6q7FT1iEk-ybayMw-1">
          <mxGeometry y="150" width="317" height="40" as="geometry" />
        </mxCell>
        <mxCell id="0GWL6q7FT1iEk-ybayMw-12" value="Cite" style="shape=partialRectangle;html=1;connectable=0;strokeColor=inherit;overflow=hidden;fillColor=none;top=0;left=0;bottom=0;right=0;pointerEvents=1;fontSize=16;shadow=0;fontStyle=1;fontColor=light-dark(#000000,#CCCCFF);align=left;verticalAlign=middle;labelBackgroundColor=none;labelBorderColor=none;textShadow=0;whiteSpace=wrap;spacingTop=0;spacing=2;spacingLeft=13;" vertex="1" parent="0GWL6q7FT1iEk-ybayMw-11">
          <mxGeometry width="159" height="40" as="geometry">
            <mxRectangle width="159" height="40" as="alternateBounds" />
          </mxGeometry>
        </mxCell>
        <mxCell id="0GWL6q7FT1iEk-ybayMw-13" value="100" style="shape=partialRectangle;html=1;whiteSpace=wrap;connectable=0;strokeColor=inherit;overflow=hidden;fillColor=none;top=0;left=0;bottom=0;right=0;pointerEvents=1;fontSize=16;shadow=0;" vertex="1" parent="0GWL6q7FT1iEk-ybayMw-11">
          <mxGeometry x="159" width="158" height="40" as="geometry">
            <mxRectangle width="158" height="40" as="alternateBounds" />
          </mxGeometry>
        </mxCell>
        <mxCell id="0GWL6q7FT1iEk-ybayMw-14" style="shape=tableRow;horizontal=0;startSize=0;swimlaneHead=0;swimlaneBody=0;strokeColor=inherit;top=0;left=0;bottom=0;right=0;collapsible=0;dropTarget=0;fillColor=none;points=[[0,0.5],[1,0.5]];portConstraint=eastwest;fontSize=16;shadow=0;" vertex="1" parent="0GWL6q7FT1iEk-ybayMw-1">
          <mxGeometry y="190" width="317" height="40" as="geometry" />
        </mxCell>
        <mxCell id="0GWL6q7FT1iEk-ybayMw-15" value="Address" style="shape=partialRectangle;html=1;connectable=0;strokeColor=inherit;overflow=hidden;fillColor=none;top=0;left=0;bottom=0;right=0;pointerEvents=1;fontSize=16;shadow=0;fontStyle=1;fontColor=light-dark(#000000,#CCCCFF);align=left;verticalAlign=middle;labelBackgroundColor=none;labelBorderColor=none;textShadow=0;whiteSpace=wrap;spacingTop=0;spacing=2;spacingLeft=13;" vertex="1" parent="0GWL6q7FT1iEk-ybayMw-14">
          <mxGeometry width="159" height="40" as="geometry">
            <mxRectangle width="159" height="40" as="alternateBounds" />
          </mxGeometry>
        </mxCell>
        <mxCell id="0GWL6q7FT1iEk-ybayMw-16" value="Text" style="shape=partialRectangle;html=1;whiteSpace=wrap;connectable=0;strokeColor=inherit;overflow=hidden;fillColor=none;top=0;left=0;bottom=0;right=0;pointerEvents=1;fontSize=16;shadow=0;" vertex="1" parent="0GWL6q7FT1iEk-ybayMw-14">
          <mxGeometry x="159" width="158" height="40" as="geometry">
            <mxRectangle width="158" height="40" as="alternateBounds" />
          </mxGeometry>
        </mxCell>
        <mxCell id="0GWL6q7FT1iEk-ybayMw-17" style="shape=tableRow;horizontal=0;startSize=0;swimlaneHead=0;swimlaneBody=0;strokeColor=inherit;top=0;left=0;bottom=0;right=0;collapsible=0;dropTarget=0;fillColor=none;points=[[0,0.5],[1,0.5]];portConstraint=eastwest;fontSize=16;shadow=0;" vertex="1" parent="0GWL6q7FT1iEk-ybayMw-1">
          <mxGeometry y="230" width="317" height="40" as="geometry" />
        </mxCell>
        <mxCell id="0GWL6q7FT1iEk-ybayMw-18" value="Address Type" style="shape=partialRectangle;html=1;connectable=0;strokeColor=inherit;overflow=hidden;fillColor=none;top=0;left=0;bottom=0;right=0;pointerEvents=1;fontSize=16;shadow=0;fontStyle=1;fontColor=light-dark(#000000,#CCCCFF);align=left;verticalAlign=middle;labelBackgroundColor=none;labelBorderColor=none;textShadow=0;whiteSpace=wrap;spacingTop=0;spacing=2;spacingLeft=13;" vertex="1" parent="0GWL6q7FT1iEk-ybayMw-17">
          <mxGeometry width="159" height="40" as="geometry">
            <mxRectangle width="159" height="40" as="alternateBounds" />
          </mxGeometry>
        </mxCell>
        <mxCell id="0GWL6q7FT1iEk-ybayMw-19" value="100" style="shape=partialRectangle;html=1;whiteSpace=wrap;connectable=0;strokeColor=inherit;overflow=hidden;fillColor=none;top=0;left=0;bottom=0;right=0;pointerEvents=1;fontSize=16;shadow=0;" vertex="1" parent="0GWL6q7FT1iEk-ybayMw-17">
          <mxGeometry x="159" width="158" height="40" as="geometry">
            <mxRectangle width="158" height="40" as="alternateBounds" />
          </mxGeometry>
        </mxCell>
        <mxCell id="0GWL6q7FT1iEk-ybayMw-20" style="shape=tableRow;horizontal=0;startSize=0;swimlaneHead=0;swimlaneBody=0;strokeColor=inherit;top=0;left=0;bottom=0;right=0;collapsible=0;dropTarget=0;fillColor=none;points=[[0,0.5],[1,0.5]];portConstraint=eastwest;fontSize=16;shadow=0;" vertex="1" parent="0GWL6q7FT1iEk-ybayMw-1">
          <mxGeometry y="270" width="317" height="40" as="geometry" />
        </mxCell>
        <mxCell id="0GWL6q7FT1iEk-ybayMw-21" value="Block Number" style="shape=partialRectangle;html=1;connectable=0;strokeColor=inherit;overflow=hidden;fillColor=none;top=0;left=0;bottom=0;right=0;pointerEvents=1;fontSize=16;shadow=0;fontStyle=1;fontColor=light-dark(#000000,#CCCCFF);align=left;verticalAlign=middle;labelBackgroundColor=none;labelBorderColor=none;textShadow=0;whiteSpace=wrap;spacingTop=0;spacing=2;spacingLeft=13;" vertex="1" parent="0GWL6q7FT1iEk-ybayMw-20">
          <mxGeometry width="159" height="40" as="geometry">
            <mxRectangle width="159" height="40" as="alternateBounds" />
          </mxGeometry>
        </mxCell>
        <mxCell id="0GWL6q7FT1iEk-ybayMw-22" value="100" style="shape=partialRectangle;html=1;whiteSpace=wrap;connectable=0;strokeColor=inherit;overflow=hidden;fillColor=none;top=0;left=0;bottom=0;right=0;pointerEvents=1;fontSize=16;shadow=0;" vertex="1" parent="0GWL6q7FT1iEk-ybayMw-20">
          <mxGeometry x="159" width="158" height="40" as="geometry">
            <mxRectangle width="158" height="40" as="alternateBounds" />
          </mxGeometry>
        </mxCell>
      </root>
    </mxGraphModel>
  </diagram>
</mxfile>
